# xmcd
#
# Track frame offsets:
#	150
#	17477
#	38560
#	57855
#	77692
#	93145
#	108035
#	126657
#	142135
#	159452
#	180515
#	199800
#	219627
#	235072
#	249930
#	268537
#
# Disc length: 3786 seconds
#
# Revision: 1
# Processed by: cddbd v1.5.2PL0 Copyright (c) Steve Scherf et al.
# Submitted via: audiograbber 1.83.01
#
DISCID=cf0ec810
DTITLE=Various Artist - SC3047
DYEAR=2001
DGENRE=Country
TTITLE0=Twain, Shania - Love Gets Me Every Time
TTITLE1=McCann, Lila - I Wanna Fall In Love
TTITLE2=Lawrence, Tracy - Coast Is Clear, The
TTITLE3=Anderson, John - Small Town
TTITLE4=McCready, Mindy - What If I Do
TTITLE5=Lawrence, Tracy - While You Sleep
TTITLE6=Austin, Sherrie - One Solitary Tear
TTITLE7=Berg, Matraca - That Train Don't Run
TTITLE8=Twain, Shania - Love Gets Me Every Time (vocal)
TTITLE9=McCann, Lila - I Wanna Fall In Love (vocal)
TTITLE10=Lawrence, Tracy - Coast Is Clear, The (vocal)
TTITLE11=Anderson, John - Small Town (vocal)
TTITLE12=McCready, Mindy - What If I Do (vocal)
TTITLE13=Lawrence, Tracy - While You Sleep (vocal)
TTITLE14=Austin, Sherrie - One Solitary Tear (vocal)
TTITLE15=Berg, Matraca - That Train Don't Run (vocal)
EXTD=Chuck
EXTT0=
EXTT1=
EXTT2=
EXTT3=
EXTT4=
EXTT5=
EXTT6=
EXTT7=
EXTT8=
EXTT9=
EXTT10=
EXTT11=
EXTT12=
EXTT13=
EXTT14=
EXTT15=
PLAYORDER=
